<svg viewBox="0 0 64 64" xml:space="preserve" xmlns="http://www.w3.org/2000/svg"><path d="M23.734 28.125a2 2 0 0 0 2-2v-7.8A6.332 6.332 0 0 1 32.058 12a6.333 6.333 0 0 1 6.325 6.325v7.8a2 2 0 0 0 4 0v-7.8C42.384 12.632 37.752 8 32.058 8c-5.692 0-10.324 4.632-10.324 10.325v7.8a2 2 0 0 0 2 2z" fill="#ffffff" class="fill-000000"></path><path d="M55 23.631H44.384v2.494c0 2.206-1.794 4-4 4s-4-1.794-4-4v-2.494h-8.649v2.494c0 2.206-1.794 4-4 4s-4-1.794-4-4v-2.494H9c-.552 0-.893.435-.762.971l6.998 28.497C15.658 54.701 17.344 56 19 56h26c1.658 0 3.342-1.299 3.766-2.901l6.996-28.497c.131-.537-.209-.971-.762-.971z" fill="#ffffff" class="fill-000000"></path></svg>